<svg width="98" height="97" viewBox="0 0 98 97" fill="none" xmlns="http://www.w3.org/2000/svg">
<path d="M12.0284 65.4547V79.0408H8.29374V73.7302H3.73924V79.0408H0V65.4547H3.73924V70.4647H8.29374V65.4547H12.0284Z" fill="#484444"/>
<path d="M17.8901 65.4547H21.2969L26.0199 79.0408H22.226L21.4016 76.3809H17.7854L16.9792 79.0408H13.1671L17.8901 65.4547ZM20.8004 73.9033L19.5935 69.6904L18.3274 73.9033H20.8004Z" fill="#484444"/>
<path d="M27.1401 79.0407V65.4547H33.3843C34.0154 65.4507 34.6389 65.5926 35.2061 65.8691C35.7522 66.1311 36.2437 66.4943 36.6545 66.9394C37.0571 67.3853 37.3778 67.8987 37.6018 68.4561C37.8266 68.9992 37.9442 69.5808 37.9479 70.1686C37.9536 70.9372 37.7756 71.6961 37.4287 72.3821C37.0938 73.0504 36.5995 73.626 35.9895 74.0581L38.8634 79.0681H34.6733L32.2822 74.8961H30.8794V79.0407H27.1401ZM30.8748 71.6123H33.234C33.3632 71.6021 33.4881 71.5618 33.5989 71.4946C33.7096 71.4273 33.803 71.3351 33.8717 71.2252C34.0897 70.9126 34.1957 70.5354 34.1723 70.1549C34.2 69.7626 34.0761 69.3746 33.8261 69.0709C33.7435 68.9645 33.6398 68.8764 33.5214 68.8121C33.403 68.7479 33.2726 68.7088 33.1384 68.6975H30.8612L30.8748 71.6123Z" fill="#484444"/>
<path d="M50.3591 79.0408V71.8902L48.0818 76.9275H46.0915L43.8143 71.8902V79.0408H40.0796V65.4547H44.1786L47.1117 71.8538L50.0585 65.4547H54.1211V79.0408H50.3591Z" fill="#484444"/>
<path d="M62.5605 79.1728C61.5896 79.1857 60.6281 78.9818 59.7458 78.5762C58.9304 78.2001 58.1945 77.6714 57.5779 77.0186C56.9802 76.3726 56.5063 75.6223 56.1797 74.8051C55.8503 73.9888 55.6817 73.1166 55.6832 72.2363C55.6831 71.3486 55.858 70.4695 56.1979 69.6494C56.5361 68.8332 57.0277 68.0895 57.6462 67.4587C58.2764 66.8169 59.025 66.3034 59.8506 65.9466C60.7288 65.5613 61.679 65.3673 62.6379 65.3773C63.6089 65.3645 64.5704 65.5683 65.4526 65.9739C66.2692 66.3518 67.0041 66.8856 67.616 67.5452C68.2076 68.1933 68.6712 68.9474 68.9824 69.7678C69.3058 70.5776 69.4712 71.4418 69.4697 72.3138C69.4707 73.1987 69.2957 74.0749 68.955 74.8916C68.616 75.7025 68.1278 76.4425 67.5158 77.0732C66.8895 77.7156 66.1459 78.232 65.3251 78.5944C64.4556 78.9828 63.5128 79.1801 62.5605 79.1728ZM59.4771 72.2773C59.4759 72.7276 59.5403 73.1756 59.6684 73.6073C59.7879 74.0189 59.9825 74.4049 60.2423 74.7459C60.5018 75.0815 60.8313 75.3565 61.2078 75.552C61.639 75.7656 62.1159 75.8704 62.597 75.8572C63.0818 75.8691 63.5621 75.7611 63.9952 75.5429C64.3755 75.3432 64.7068 75.0617 64.9653 74.7185C65.2186 74.3678 65.4068 73.9744 65.5209 73.5572C65.6402 73.127 65.7015 72.6828 65.7031 72.2363C65.7051 71.7857 65.6391 71.3374 65.5073 70.9064C65.3922 70.4941 65.1938 70.1096 64.9243 69.7769C64.6596 69.4475 64.3272 69.1788 63.9496 68.989C63.5236 68.7849 63.0556 68.6836 62.5833 68.693C62.1025 68.6821 61.6261 68.7867 61.1942 68.9981C60.8162 69.1955 60.4865 69.4739 60.2286 69.8134C59.9699 70.157 59.7783 70.5464 59.6639 70.9611C59.5403 71.3889 59.4775 71.832 59.4771 72.2773Z" fill="#484444"/>
<path d="M74.8211 72.373V79.0408H71.0819V65.4547H73.9968L79.4622 72.373V65.4547H83.1923V79.0408H80.2182L74.8211 72.373Z" fill="#484444"/>
<path d="M88.2843 65.4547L90.7165 71.3345L93.2078 65.4547H97.2704L92.5747 74.5637V79.0407H88.8719V74.4862L84.2582 65.4228L88.2843 65.4547Z" fill="#484444"/>
<path d="M13.1534 84.1236H9.94245V92.349H9.05887V84.1236H5.87073V83.3402H13.1579L13.1534 84.1236Z" fill="#484444"/>
<path d="M20.5544 91.5611V92.349H14.5015V83.3402H20.4223V84.1236H15.3714V87.3755H19.771V88.1224H15.3714V91.5611H20.5544Z" fill="#484444"/>
<path d="M21.4653 87.7808C21.4677 87.2283 21.5632 86.6802 21.7477 86.1594C21.9348 85.6326 22.2174 85.1447 22.5812 84.7202C22.957 84.291 23.4135 83.9397 23.9247 83.6863C24.4928 83.414 25.1167 83.2783 25.7465 83.2901C26.4708 83.2675 27.186 83.4558 27.8052 83.8321C28.3562 84.1715 28.795 84.6657 29.0668 85.2531L28.3699 85.7085C28.2393 85.4303 28.0604 85.1775 27.8416 84.9616C27.6429 84.7654 27.4175 84.5983 27.1721 84.4652C26.9416 84.3403 26.6948 84.2483 26.4388 84.1919C26.1919 84.1381 25.94 84.1106 25.6873 84.1099C25.1895 84.1002 24.6969 84.2128 24.2527 84.4378C23.8501 84.6529 23.4954 84.9473 23.2097 85.3032C22.9236 85.6595 22.7059 86.0656 22.5675 86.501C22.4234 86.942 22.3511 87.4034 22.3534 87.8674C22.3523 88.3574 22.4402 88.8435 22.6131 89.302C22.7778 89.744 23.0182 90.154 23.3236 90.5135C23.6191 90.8603 23.9816 91.1437 24.3893 91.347C24.804 91.5576 25.2633 91.6653 25.7283 91.6613C25.9908 91.6598 26.2522 91.6277 26.5072 91.5656C26.7781 91.5002 27.0387 91.3975 27.2814 91.2605C27.5331 91.1172 27.7657 90.9428 27.9737 90.7412C28.1918 90.5203 28.3719 90.2649 28.5066 89.9852L29.2444 90.3678C29.1017 90.708 28.8945 91.0173 28.6341 91.2787C28.3727 91.5368 28.0769 91.7575 27.7551 91.9345C27.4332 92.1115 27.0905 92.2477 26.7349 92.3399C26.3897 92.4292 26.0348 92.4751 25.6782 92.4765C25.0856 92.4847 24.5003 92.3454 23.9748 92.0712C23.4676 91.808 23.016 91.4492 22.6449 91.0145C22.2715 90.5735 21.9772 90.0711 21.775 89.5297C21.5631 88.9713 21.458 88.3781 21.4653 87.7808Z" fill="#484444"/>
<path d="M37.8615 83.3402V92.349H36.987V88.1498H31.6446V92.3627H30.7565V83.3402H31.6446V87.3482H36.987V83.3402H37.8615Z" fill="#484444"/>
<path d="M40.9951 84.9889V92.349H40.1069V83.3402H40.7901L46.7565 90.8369V83.3493H47.6446V92.349H46.8658L40.9951 84.9889Z" fill="#484444"/>
<path d="M53.5289 92.4128C52.9344 92.4181 52.3467 92.2856 51.8119 92.0256C51.3007 91.7764 50.8452 91.4263 50.4729 90.9963C50.0975 90.5643 49.8042 90.0673 49.6075 89.5298C49.4076 88.9903 49.3043 88.4199 49.3024 87.8446C49.3013 87.2541 49.411 86.6686 49.6257 86.1184C49.8386 85.5801 50.1472 85.0848 50.5366 84.6565C50.9153 84.2373 51.3716 83.8955 51.8802 83.6499C52.403 83.399 52.9764 83.2712 53.5563 83.2764C54.1526 83.2689 54.7419 83.4065 55.2733 83.6772C55.7829 83.933 56.2365 84.2875 56.6078 84.7202C56.9769 85.1551 57.2667 85.6515 57.464 86.1868C57.6635 86.72 57.7668 87.2844 57.7692 87.8537C57.7707 88.4443 57.661 89.0299 57.4458 89.5799C57.2413 90.1145 56.9403 90.607 56.5577 91.0327C56.1817 91.4517 55.7267 91.7922 55.2187 92.0347C54.6922 92.2896 54.1138 92.419 53.5289 92.4128ZM50.1951 87.8583C50.1925 88.339 50.2726 88.8166 50.4319 89.2702C50.5879 89.71 50.8208 90.1186 51.1196 90.4771C51.4112 90.8235 51.7689 91.1084 52.1717 91.3151C52.596 91.5257 53.0644 91.6319 53.5381 91.6248C54.0134 91.6286 54.4825 91.516 54.9044 91.2969C55.3096 91.082 55.6675 90.7877 55.9565 90.4316C56.2463 90.0724 56.4713 89.6656 56.6215 89.2292C56.7774 88.7905 56.8575 88.3284 56.8583 87.8628C56.8596 87.3799 56.7764 86.9005 56.6123 86.4464C56.4539 86.0095 56.2195 85.604 55.9201 85.2485C55.6266 84.9034 55.2674 84.6201 54.8634 84.4151C54.4465 84.2065 53.9859 84.1004 53.5198 84.1054C53.0452 84.1034 52.5769 84.2143 52.1535 84.4287C51.7467 84.6374 51.3883 84.9291 51.1014 85.285C50.8106 85.6451 50.5855 86.0537 50.4364 86.4919C50.2817 86.9263 50.2001 87.3835 50.1951 87.8446V87.8583Z" fill="#484444"/>
<path d="M59.4316 92.349V83.3402H60.3198V91.5611H65.521V92.349H59.4316Z" fill="#484444"/>
<path d="M69.8841 92.4127C69.2896 92.4181 68.7018 92.2856 68.1671 92.0256C67.6573 91.774 67.2023 91.4242 66.8281 90.9963C66.4524 90.5653 66.1605 90.0679 65.9673 89.5298C65.7652 88.9909 65.6618 88.4201 65.6621 87.8446C65.661 87.254 65.7707 86.6685 65.9855 86.1184C66.198 85.5799 66.5067 85.0846 66.8964 84.6564C67.2821 84.2354 67.7462 83.8935 68.2627 83.6499C68.7838 83.3985 69.3558 83.2708 69.9342 83.2764C70.532 83.2691 71.1227 83.4066 71.6558 83.6772C72.164 83.9331 72.6161 84.2876 72.9857 84.7202C73.3565 85.1539 73.6465 85.6507 73.842 86.1868C74.0437 86.7194 74.1471 87.2842 74.1471 87.8537C74.1486 88.4443 74.0389 89.0299 73.8238 89.5799C73.6193 90.1145 73.3183 90.607 72.9356 91.0327C72.5607 91.4528 72.1054 91.7935 71.5966 92.0347C71.0633 92.2931 70.4767 92.4226 69.8841 92.4127ZM66.5502 87.8583C66.5472 88.3394 66.6289 88.8173 66.7916 89.2701C66.9442 89.7106 67.1757 90.1196 67.4748 90.4771C67.7664 90.8235 68.1241 91.1084 68.5269 91.3151C68.9514 91.5252 69.4197 91.6313 69.8932 91.6248C70.3686 91.6286 70.8377 91.516 71.2596 91.2969C71.6648 91.082 72.0226 90.7877 72.3117 90.4315C72.601 90.0713 72.8274 89.6648 72.9812 89.2292C73.134 88.7898 73.2125 88.328 73.2135 87.8628C73.2148 87.3799 73.1316 86.9005 72.9675 86.4464C72.8108 86.0086 72.5763 85.6028 72.2752 85.2485C71.9835 84.9035 71.6258 84.6202 71.2232 84.4151C70.7992 84.2036 70.3305 84.0974 69.8568 84.1053C69.382 84.1022 68.9134 84.2131 68.4905 84.4287C68.0837 84.6373 67.7253 84.9291 67.4384 85.285C67.1462 85.6449 66.9195 86.0534 66.7689 86.4919C66.6234 86.9279 66.5511 87.385 66.5548 87.8446L66.5502 87.8583Z" fill="#484444"/>
<path d="M82.2951 91.0282C81.9402 91.4511 81.4979 91.7922 80.9987 92.0281C80.4995 92.2639 79.9551 92.3889 79.403 92.3945C78.8189 92.4008 78.2421 92.2648 77.7224 91.9983C77.2141 91.7424 76.7608 91.3897 76.3879 90.9598C76.0117 90.5259 75.7142 90.0296 75.5089 89.4933C75.2974 88.9582 75.1892 88.388 75.1901 87.8127C75.1889 87.2234 75.2938 86.6387 75.4998 86.0865C75.6978 85.5528 75.9927 85.0602 76.3697 84.6336C76.7402 84.2165 77.189 83.8761 77.6905 83.6317C78.2079 83.3793 78.7772 83.2514 79.3529 83.2582C79.7584 83.253 80.1627 83.302 80.5553 83.4039C80.8979 83.4916 81.2262 83.6281 81.5299 83.8093C81.8048 83.9768 82.0521 84.1857 82.2632 84.4287C82.4712 84.6701 82.6487 84.9363 82.7915 85.2212L82.1038 85.6766C81.8507 85.1611 81.4495 84.7329 80.9515 84.4469C80.4574 84.1775 79.9019 84.041 79.3392 84.0507C78.8643 84.0415 78.3947 84.1511 77.9729 84.3695C77.5765 84.5762 77.2275 84.8631 76.9481 85.2121C76.6575 85.5709 76.4352 85.98 76.2923 86.419C76.1411 86.8712 76.0642 87.345 76.0645 87.8218C76.0621 88.3149 76.1501 88.8042 76.3241 89.2656C76.4884 89.706 76.7306 90.1133 77.0392 90.4679C77.3409 90.8071 77.7061 91.0841 78.1141 91.2832C78.5302 91.4888 78.989 91.5933 79.4531 91.5884C79.9668 91.5891 80.473 91.4656 80.9287 91.2285C81.4575 90.9429 81.9224 90.5524 82.2951 90.0808V88.6052H80.2911V87.9174H83.0238V92.349H82.2769L82.2951 91.0282Z" fill="#484444"/>
<path d="M84.5405 83.3402L87.5055 88.1862L90.4704 83.3402H91.436L87.9473 88.9969V92.349H87.0364V88.9741L83.5613 83.3402H84.5405Z" fill="#484444"/>
<path d="M34 20L35.1361 23H61.8639L63 20H34Z" fill="#F9B700"/>
<path d="M64.003 19L69 7.66268C67.9272 8.22887 66.7965 8.66992 65.629 8.97768C65.8695 9.4736 65.994 10.0208 65.9923 10.5754C65.9923 11.0434 65.9029 11.5068 65.7293 11.9393C65.5557 12.3717 65.3013 12.7646 64.9805 13.0955C64.6598 13.4265 64.279 13.689 63.8599 13.8681C63.4407 14.0472 62.9915 14.1394 62.5379 14.1394C61.6684 14.1321 60.8336 13.7862 60.2007 13.1709C59.5679 12.5556 59.1838 11.7163 59.1252 10.8212C59.5234 10.6763 59.888 10.4474 60.1956 10.149C60.5033 9.85066 60.7472 9.48939 60.912 9.08829C61.0724 8.69987 61.1535 8.28151 61.1502 7.85931C61.151 7.44967 61.0735 7.04389 60.9221 6.66519C60.7707 6.2865 60.5484 5.94233 60.2679 5.65238C59.9874 5.36243 59.6543 5.1324 59.2875 4.97545C58.9208 4.8185 58.5276 4.73771 58.1306 4.73771C57.4362 4.73262 56.7613 4.97412 56.219 5.42167C55.6768 5.86923 55.3003 6.4956 55.1527 7.19567C55.1113 7.39778 55.0894 7.6036 55.0872 7.81015C55.0886 8.46975 55.2922 9.11198 55.6687 9.64503C56.0453 10.1781 56.5755 10.5747 57.1836 10.7781C57.1162 11.6709 56.7249 12.5046 56.0879 13.1128C55.4509 13.7211 54.615 14.0591 53.7471 14.0595C52.832 14.0579 51.9549 13.6817 51.3083 13.0135C50.6618 12.3452 50.2987 11.4396 50.2987 10.4955C50.2992 9.75014 50.5263 9.02376 50.9478 8.4185C51.9136 7.77371 52.6055 6.77421 52.8835 5.62257C51.0215 4.10962 49.5081 2.18928 48.4524 0C47.4038 2.18183 45.8984 4.09601 44.045 5.60414C44.3209 6.76329 45.0154 7.76999 45.9866 8.4185C46.4082 9.02376 46.6352 9.75014 46.6358 10.4955C46.6358 11.4396 46.2727 12.3452 45.6262 13.0135C44.9796 13.6817 44.1025 14.0579 43.1874 14.0595C42.3425 14.0526 41.5294 13.7259 40.9025 13.1415C40.2756 12.557 39.8785 11.7553 39.7866 10.8887C40.4228 10.7074 40.9839 10.316 41.384 9.77448C41.7841 9.23291 42.0013 8.57101 42.0022 7.89004C42.0023 7.64781 41.9743 7.40644 41.9188 7.17109C41.7629 6.48691 41.3874 5.87721 40.8533 5.44103C40.3192 5.00485 39.6578 4.76781 38.9766 4.76843C38.5796 4.76843 38.1864 4.84922 37.8197 5.00617C37.4529 5.16312 37.1198 5.39315 36.8393 5.6831C36.5588 5.97305 36.3365 6.31722 36.1851 6.69592C36.0337 7.07461 35.9562 7.48039 35.957 7.89004C35.9529 8.31171 36.0319 8.72985 36.1893 9.11902C36.3472 9.50665 36.5795 9.85729 36.8722 10.1498C37.165 10.4423 37.5121 10.6707 37.8927 10.8212C37.8335 11.7258 37.4418 12.573 36.7975 13.1898C36.1533 13.8065 35.3051 14.1461 34.4263 14.1394C33.5112 14.1378 32.6341 13.7615 31.9876 13.0933C31.341 12.4251 30.9779 11.5195 30.9779 10.5754C30.9769 10.0109 31.1076 9.45443 31.3591 8.9531C30.2059 8.73513 29.0794 8.38687 28 7.91462L32.991 18.9754L64.003 19Z" fill="#F9B700"/>
<path d="M44 45.1417H41.2071V32H35V57H41.2071V50.6421H44V45.1417Z" fill="#F9B700"/>
<path d="M55.8394 45.1417H53V50.6421H55.8394V57H62V32H55.8394V45.1417Z" fill="#F9B700"/>
<path d="M61.9705 30.4546H51.6272V57H45.3728V30.4546H35V25H62L61.9705 30.4546Z" fill="#F9B700"/>
<path d="M70.4261 96.1793H26.8351V96.5755H70.4261V96.1793Z" fill="#F9B700"/>
</svg>
