<svg width="21" height="23" viewBox="0 0 21 23" fill="none" xmlns="http://www.w3.org/2000/svg">
<path fill-rule="evenodd" clip-rule="evenodd" d="M14.4516 0.0416565C14.8828 0.0416565 15.2328 0.391657 15.2328 0.822907L15.2333 1.70604C16.7542 1.81032 18.0174 2.33129 18.9115 3.22718C19.8875 4.20739 20.4011 5.61676 20.3959 7.30739V16.8105C20.3959 20.2813 18.1917 22.4376 14.6448 22.4376H5.83439C2.28751 22.4376 0.0833435 20.2511 0.0833435 16.7313V7.3053C0.0833435 4.03154 2.04903 1.93014 5.25489 1.7064L5.25553 0.822907C5.25553 0.391657 5.60553 0.0416565 6.03678 0.0416565C6.46803 0.0416565 6.81803 0.391657 6.81803 0.822907L6.81772 1.68645H13.6698L13.6703 0.822907C13.6703 0.391657 14.0203 0.0416565 14.4516 0.0416565ZM18.8333 9.31666H1.64584V16.7313C1.64584 19.4043 3.13334 20.8751 5.83439 20.8751H14.6448C17.3458 20.8751 18.8334 19.4313 18.8334 16.8105L18.8333 9.31666ZM14.8763 15.8711C15.3075 15.8711 15.6575 16.2211 15.6575 16.6524C15.6575 17.0836 15.3075 17.4336 14.8763 17.4336C14.445 17.4336 14.0908 17.0836 14.0908 16.6524C14.0908 16.2211 14.4356 15.8711 14.8669 15.8711H14.8763ZM10.2539 15.8711C10.6851 15.8711 11.0351 16.2211 11.0351 16.6524C11.0351 17.0836 10.6851 17.4336 10.2539 17.4336C9.82261 17.4336 9.46845 17.0836 9.46845 16.6524C9.46845 16.2211 9.81324 15.8711 10.2445 15.8711H10.2539ZM5.62178 15.8711C6.05303 15.8711 6.40303 16.2211 6.40303 16.6524C6.40303 17.0836 6.05303 17.4336 5.62178 17.4336C5.19053 17.4336 4.83532 17.0836 4.83532 16.6524C4.83532 16.2211 5.18116 15.8711 5.61241 15.8711H5.62178ZM14.8763 11.8225C15.3075 11.8225 15.6575 12.1725 15.6575 12.6037C15.6575 13.035 15.3075 13.385 14.8763 13.385C14.445 13.385 14.0908 13.035 14.0908 12.6037C14.0908 12.1725 14.4356 11.8225 14.8669 11.8225H14.8763ZM10.2539 11.8225C10.6851 11.8225 11.0351 12.1725 11.0351 12.6037C11.0351 13.035 10.6851 13.385 10.2539 13.385C9.82261 13.385 9.46845 13.035 9.46845 12.6037C9.46845 12.1725 9.81324 11.8225 10.2445 11.8225H10.2539ZM5.62178 11.8225C6.05303 11.8225 6.40303 12.1725 6.40303 12.6037C6.40303 13.035 6.05303 13.385 5.62178 13.385C5.19053 13.385 4.83532 13.035 4.83532 12.6037C4.83532 12.1725 5.18116 11.8225 5.61241 11.8225H5.62178ZM13.6698 3.24895H6.81772L6.81803 4.25103C6.81803 4.68228 6.46803 5.03228 6.03678 5.03228C5.60553 5.03228 5.25553 4.68228 5.25553 4.25103L5.25498 3.2726C2.9214 3.46863 1.64584 4.88317 1.64584 7.3053V7.75416H18.8333L18.8334 7.3053C18.8375 6.01884 18.4917 5.01884 17.8052 4.33134C17.2026 3.72698 16.3217 3.36603 15.2337 3.2731L15.2328 4.25103C15.2328 4.68228 14.8828 5.03228 14.4516 5.03228C14.0203 5.03228 13.6703 4.68228 13.6703 4.25103L13.6698 3.24895Z" fill="black"/>
</svg>
