<svg width="17" height="20" viewBox="0 0 17 20" fill="none" xmlns="http://www.w3.org/2000/svg">
<path d="M2.79402 19.4706C2.27314 19.4706 1.82707 19.285 1.45583 18.9137C1.08458 18.5425 0.899273 18.0967 0.899904 17.5765V4.31765H2.79402V17.5765H13.2117V19.4706H2.79402ZM6.58225 15.6824C6.06137 15.6824 5.61531 15.4967 5.24406 15.1255C4.87281 14.7542 4.68751 14.3085 4.68814 13.7882V2.42354C4.68814 1.90266 4.87376 1.45659 5.24501 1.08534C5.61625 0.714097 6.062 0.528789 6.58225 0.529421H15.1058C15.6267 0.529421 16.0727 0.715044 16.444 1.08629C16.8152 1.45754 17.0005 1.90329 16.9999 2.42354V13.7882C16.9999 14.3091 16.8143 14.7552 16.443 15.1264C16.0718 15.4977 15.626 15.683 15.1058 15.6824H6.58225ZM6.58225 13.7882H15.1058V2.42354H6.58225V13.7882Z" fill="#33322D"/>
</svg>
