<svg width="15" height="17" viewBox="0 0 15 17" fill="none" xmlns="http://www.w3.org/2000/svg">
<path fill-rule="evenodd" clip-rule="evenodd" d="M10.5189 0C10.8346 0 11.0908 0.256233 11.0908 0.571949L11.0912 1.21849C12.2047 1.29483 13.1294 1.67623 13.784 2.3321C14.4985 3.04971 14.8745 4.0815 14.8707 5.3192V12.2764C14.8707 14.8174 13.257 16.3959 10.6604 16.3959H4.21031C1.61366 16.3959 0 14.7952 0 12.2184V5.31767C0 2.92097 1.43907 1.38254 3.78606 1.21875L3.78653 0.571949C3.78653 0.256233 4.04276 0 4.35848 0C4.67419 0 4.93043 0.256233 4.93043 0.571949L4.9302 1.20414H9.94657L9.94695 0.571949C9.94695 0.256233 10.2032 0 10.5189 0ZM13.7268 6.79018H1.1439V12.2184C1.1439 14.1753 2.23289 15.252 4.21031 15.252H10.6604C12.6378 15.252 13.7268 14.1951 13.7268 12.2764L13.7268 6.79018ZM10.8298 11.5887C11.1455 11.5887 11.4018 11.8449 11.4018 12.1606C11.4018 12.4763 11.1455 12.7326 10.8298 12.7326C10.5141 12.7326 10.2548 12.4763 10.2548 12.1606C10.2548 11.8449 10.5072 11.5887 10.8229 11.5887H10.8298ZM7.44578 11.5887C7.7615 11.5887 8.01773 11.8449 8.01773 12.1606C8.01773 12.4763 7.7615 12.7326 7.44578 12.7326C7.13006 12.7326 6.87078 12.4763 6.87078 12.1606C6.87078 11.8449 7.1232 11.5887 7.43892 11.5887H7.44578ZM4.05466 11.5887C4.37037 11.5887 4.62661 11.8449 4.62661 12.1606C4.62661 12.4763 4.37037 12.7326 4.05466 12.7326C3.73894 12.7326 3.4789 12.4763 3.4789 12.1606C3.4789 11.8449 3.73208 11.5887 4.0478 11.5887H4.05466ZM10.8298 8.62468C11.1455 8.62468 11.4018 8.88091 11.4018 9.19663C11.4018 9.51235 11.1455 9.76858 10.8298 9.76858C10.5141 9.76858 10.2548 9.51235 10.2548 9.19663C10.2548 8.88091 10.5072 8.62468 10.8229 8.62468H10.8298ZM7.44578 8.62468C7.7615 8.62468 8.01773 8.88091 8.01773 9.19663C8.01773 9.51235 7.7615 9.76858 7.44578 9.76858C7.13006 9.76858 6.87078 9.51235 6.87078 9.19663C6.87078 8.88091 7.1232 8.62468 7.43892 8.62468H7.44578ZM4.05466 8.62468C4.37037 8.62468 4.62661 8.88091 4.62661 9.19663C4.62661 9.51235 4.37037 9.76858 4.05466 9.76858C3.73894 9.76858 3.4789 9.51235 3.4789 9.19663C3.4789 8.88091 3.73208 8.62468 4.0478 8.62468H4.05466ZM9.94657 2.34804H4.9302L4.93043 3.08166C4.93043 3.39738 4.67419 3.65361 4.35848 3.65361C4.04276 3.65361 3.78653 3.39738 3.78653 3.08166L3.78612 2.36535C2.07773 2.50887 1.1439 3.54445 1.1439 5.31767V5.64628H13.7268L13.7268 5.31767C13.7298 4.37587 13.4766 3.64377 12.9741 3.14046C12.5329 2.698 11.888 2.43376 11.0915 2.36572L11.0908 3.08166C11.0908 3.39738 10.8346 3.65361 10.5189 3.65361C10.2032 3.65361 9.94695 3.39738 9.94695 3.08166L9.94657 2.34804Z" fill="#2D2B26"/>
</svg>
