<svg width="23" height="23" viewBox="0 0 23 23" fill="none" xmlns="http://www.w3.org/2000/svg">
<path fill-rule="evenodd" clip-rule="evenodd" d="M11.2379 0.0419922C14.2306 0.0419922 17.0431 1.20553 19.1556 3.31908C23.5223 7.68574 23.5223 14.7899 19.1556 19.1566C17.015 21.2982 14.1327 22.4316 11.2129 22.4316C9.62125 22.4316 8.01917 22.0951 6.52021 21.4014C6.07854 21.2243 5.665 21.0576 5.36812 21.0576C5.02646 21.0597 4.56708 21.218 4.12333 21.3712C3.21291 21.6837 2.07958 22.0732 1.24104 21.2378C0.405623 20.4014 0.79104 19.2712 1.10146 18.3618C1.25458 17.9139 1.41187 17.4514 1.41187 17.1014C1.41187 16.8139 1.27333 16.4472 1.06083 15.9191C-0.89021 11.7055 0.0118731 6.62741 3.32125 3.32012C5.43375 1.20658 8.24521 0.0419922 11.2379 0.0419922ZM11.239 1.60449C8.66292 1.60449 6.24312 2.60658 4.42542 4.42533C1.5775 7.27116 0.802498 11.641 2.49521 15.3003C2.73896 15.9035 2.97437 16.491 2.97437 17.1014C2.97437 17.7107 2.765 18.3243 2.58062 18.866C2.42854 19.3118 2.19833 19.9847 2.34625 20.1326C2.49104 20.2826 3.16812 20.0462 3.615 19.893C4.15146 19.7097 4.75979 19.4993 5.36292 19.4951C5.96708 19.4951 6.53687 19.7243 7.14 19.967C10.8348 21.6753 15.2046 20.8982 18.0515 18.0524C21.8077 14.2941 21.8077 8.18053 18.0515 4.42428C16.2327 2.60553 13.814 1.60449 11.239 1.60449ZM15.3503 10.6281C15.9253 10.6281 16.392 11.0938 16.392 11.6698C16.392 12.2458 15.9253 12.7115 15.3503 12.7115C14.7753 12.7115 14.3045 12.2458 14.3045 11.6698C14.3045 11.0938 14.7659 10.6281 15.3409 10.6281H15.3503ZM11.1745 10.6281C11.7495 10.6281 12.2161 11.0938 12.2161 11.6698C12.2161 12.2458 11.7495 12.7115 11.1745 12.7115C10.5995 12.7115 10.1286 12.2458 10.1286 11.6698C10.1286 11.0938 10.5891 10.6281 11.1651 10.6281H11.1745ZM6.99823 10.6281C7.57323 10.6281 8.03989 11.0938 8.03989 11.6698C8.03989 12.2458 7.57323 12.7115 6.99823 12.7115C6.42323 12.7115 5.95239 12.2458 5.95239 11.6698C5.95239 11.0938 6.41385 10.6281 6.98885 10.6281H6.99823Z" fill="black"/>
</svg>
