<svg width="20" height="23" viewBox="0 0 20 23" fill="none" xmlns="http://www.w3.org/2000/svg">
<path fill-rule="evenodd" clip-rule="evenodd" d="M7.7544 19.9437C8.29398 20.5448 8.98669 20.875 9.70544 20.875H9.70648C10.4284 20.875 11.1242 20.5448 11.6648 19.9427C11.9544 19.6229 12.4482 19.5969 12.7679 19.8854C13.0888 20.1739 13.1148 20.6687 12.8263 20.9885C11.9846 21.9229 10.8773 22.4375 9.70648 22.4375H9.7044C8.53669 22.4364 7.43149 21.9219 6.59294 20.9875C6.3044 20.6677 6.33044 20.1729 6.65128 19.8854C6.97211 19.5958 7.46586 19.6219 7.7544 19.9437ZM9.75732 0.0416565C14.3875 0.0416565 17.4979 3.64791 17.4979 7.01561C17.4979 8.74791 17.9386 9.48228 18.4063 10.2614C18.8688 11.0302 19.3927 11.9031 19.3927 13.5531C19.0292 17.7687 14.6281 18.1125 9.75732 18.1125C4.88649 18.1125 0.484403 17.7687 0.125014 13.6198C0.121903 11.9031 0.645861 11.0302 1.10836 10.2614L1.27164 9.98661C1.67365 9.29567 2.01669 8.54411 2.01669 7.01561C2.01669 3.64791 5.12711 0.0416565 9.75732 0.0416565ZM9.75732 1.60416C6.11669 1.60416 3.57919 4.45624 3.57919 7.01561C3.57919 9.18124 2.97815 10.1823 2.4469 11.0656C2.02086 11.775 1.6844 12.3354 1.6844 13.5531C1.85836 15.5177 3.15524 16.55 9.75732 16.55C16.3229 16.55 17.6604 15.4719 17.8334 13.4854C17.8302 12.3354 17.4938 11.775 17.0677 11.0656C16.5365 10.1823 15.9354 9.18124 15.9354 7.01561C15.9354 4.45624 13.3979 1.60416 9.75732 1.60416Z" fill="black"/>
</svg>
