<svg width="13" height="14" viewBox="0 0 13 14" fill="none" xmlns="http://www.w3.org/2000/svg">
<path fill-rule="evenodd" clip-rule="evenodd" d="M6.33688 0.25C9.69313 0.25 12.4231 2.98 12.4231 6.33625C12.4231 7.91972 11.8155 9.36392 10.821 10.4478L12.7778 12.4004C12.9609 12.5836 12.9615 12.8798 12.7784 13.0629C12.6871 13.1554 12.5665 13.2011 12.4465 13.2011C12.3271 13.2011 12.2071 13.1554 12.1153 13.0642L10.1349 11.0894C9.09317 11.9237 7.7723 12.4231 6.33688 12.4231C2.98063 12.4231 0.25 9.6925 0.25 6.33625C0.25 2.98 2.98063 0.25 6.33688 0.25ZM6.33688 1.1875C3.4975 1.1875 1.1875 3.49688 1.1875 6.33625C1.1875 9.17563 3.4975 11.4856 6.33688 11.4856C9.17563 11.4856 11.4856 9.17563 11.4856 6.33625C11.4856 3.49688 9.17563 1.1875 6.33688 1.1875Z" fill="#A9A9A9" fill-opacity="0.5"/>
</svg>
