<svg width="98" height="89" viewBox="0 0 98 89" fill="none" xmlns="http://www.w3.org/2000/svg">
<path d="M12.0284 50.4546V64.0406H8.29374V58.7301H3.73924V64.0406H0V50.4546H3.73924V55.4645H8.29374V50.4546H12.0284Z" fill="white"/>
<path d="M17.8901 50.4546H21.2969L26.0199 64.0406H22.226L21.4016 61.3808H17.7854L16.9792 64.0406H13.1671L17.8901 50.4546ZM20.8004 58.9032L19.5935 54.6903L18.3274 58.9032H20.8004Z" fill="white"/>
<path d="M27.1402 64.0407V50.4547H33.3844C34.0154 50.4507 34.6389 50.5926 35.2062 50.8691C35.7523 51.1311 36.2437 51.4943 36.6545 51.9394C37.0571 52.3853 37.3778 52.8987 37.6018 53.4561C37.8266 53.9992 37.9442 54.5808 37.948 55.1686C37.9536 55.9372 37.7756 56.6961 37.4288 57.3821C37.0938 58.0504 36.5996 58.626 35.9895 59.0581L38.8634 64.0681H34.6733L32.2822 59.8961H30.8794V64.0407H27.1402ZM30.8749 56.6123H33.2341C33.3632 56.6021 33.4882 56.5618 33.5989 56.4946C33.7096 56.4273 33.8031 56.3351 33.8717 56.2252C34.0898 55.9126 34.1957 55.5354 34.1723 55.1549C34.2001 54.7626 34.0762 54.3746 33.8262 54.0709C33.7436 53.9645 33.6398 53.8764 33.5214 53.8121C33.4031 53.7479 33.2727 53.7088 33.1384 53.6975H30.8612L30.8749 56.6123Z" fill="white"/>
<path d="M50.359 64.0406V56.8901L48.0818 61.9274H46.0915L43.8142 56.8901V64.0406H40.0795V50.4546H44.1786L47.1117 56.8537L50.0584 50.4546H54.121V64.0406H50.359Z" fill="white"/>
<path d="M62.5605 64.1726C61.5896 64.1854 60.6281 63.9816 59.7459 63.576C58.9304 63.1998 58.1946 62.6711 57.5779 62.0183C56.9802 61.3723 56.5063 60.622 56.1797 59.8048C55.8503 58.9886 55.6817 58.1163 55.6833 57.2361C55.6831 56.3483 55.858 55.4693 56.1979 54.6492C56.5361 53.833 57.0278 53.0893 57.6462 52.4584C58.2764 51.8167 59.025 51.3032 59.8506 50.9463C60.7289 50.5611 61.679 50.367 62.638 50.377C63.6089 50.3642 64.5704 50.568 65.4526 50.9737C66.2692 51.3516 67.0041 51.8853 67.616 52.545C68.2076 53.193 68.6712 53.9471 68.9824 54.7676C69.3058 55.5773 69.4712 56.4415 69.4697 57.3135C69.4707 58.1984 69.2957 59.0747 68.955 59.8914C68.616 60.7022 68.1278 61.4422 67.5158 62.073C66.8895 62.7154 66.1459 63.2318 65.3251 63.5942C64.4556 63.9826 63.5128 64.1798 62.5605 64.1726ZM59.4771 57.2771C59.4759 57.7273 59.5403 58.1754 59.6684 58.607C59.788 59.0187 59.9825 59.4047 60.2423 59.7456C60.5019 60.0812 60.8313 60.3563 61.2078 60.5518C61.639 60.7654 62.116 60.8701 62.597 60.8569C63.0818 60.8688 63.5621 60.7609 63.9952 60.5427C64.3755 60.343 64.7069 60.0614 64.9653 59.7183C65.2186 59.3676 65.4068 58.9742 65.521 58.5569C65.6403 58.1267 65.7015 57.6825 65.7031 57.2361C65.7052 56.7855 65.6391 56.3371 65.5073 55.9062C65.3922 55.4938 65.1938 55.1094 64.9243 54.7767C64.6596 54.4473 64.3272 54.1786 63.9497 53.9887C63.5236 53.7847 63.0556 53.6833 62.5833 53.6927C62.1025 53.6818 61.6262 53.7865 61.1942 53.9979C60.8163 54.1952 60.4866 54.4736 60.2286 54.8131C59.9699 55.1568 59.7783 55.5462 59.6639 55.9608C59.5404 56.3887 59.4775 56.8318 59.4771 57.2771Z" fill="white"/>
<path d="M74.8211 57.3729V64.0406H71.0819V50.4546H73.9968L79.4622 57.3729V50.4546H83.1923V64.0406H80.2182L74.8211 57.3729Z" fill="white"/>
<path d="M88.2843 50.4547L90.7164 56.3346L93.2077 50.4547H97.2703L92.5747 59.5637V64.0408H88.8718V59.4863L84.2581 50.4229L88.2843 50.4547Z" fill="white"/>
<path d="M13.1533 69.1237H9.94242V77.3491H9.05884V69.1237H5.8707V68.3403H13.1579L13.1533 69.1237Z" fill="white"/>
<path d="M20.5544 76.5612V77.3491H14.5014V68.3403H20.4223V69.1237H15.3713V72.3756H19.771V73.1226H15.3713V76.5612H20.5544Z" fill="white"/>
<path d="M21.4653 72.7806C21.4677 72.2281 21.5632 71.68 21.7477 71.1592C21.9348 70.6324 22.2173 70.1445 22.5811 69.72C22.957 69.2908 23.4135 68.9395 23.9247 68.6861C24.4928 68.4138 25.1167 68.2781 25.7465 68.2899C26.4707 68.2673 27.1859 68.4556 27.8051 68.8319C28.3562 69.1713 28.795 69.6655 29.0667 70.2529L28.3699 70.7083C28.2392 70.4301 28.0604 70.1773 27.8416 69.9614C27.6429 69.7652 27.4175 69.5981 27.1721 69.465C26.9416 69.3401 26.6948 69.2481 26.4388 69.1917C26.1919 69.1379 25.94 69.1104 25.6873 69.1097C25.1895 69.1 24.6968 69.2126 24.2526 69.4376C23.8501 69.6527 23.4953 69.9471 23.2097 70.303C22.9236 70.6593 22.7059 71.0654 22.5675 71.5008C22.4233 71.9419 22.351 72.4032 22.3534 72.8672C22.3522 73.3572 22.4402 73.8433 22.613 74.3018C22.7777 74.7439 23.0182 75.1538 23.3235 75.5133C23.6191 75.8601 23.9815 76.1436 24.3893 76.3468C24.804 76.5574 25.2632 76.6652 25.7283 76.6611C25.9907 76.6596 26.2521 76.6275 26.5071 76.5654C26.7781 76.5 27.0387 76.3973 27.2814 76.2603C27.5331 76.117 27.7657 75.9426 27.9737 75.7411C28.1918 75.5202 28.3718 75.2647 28.5065 74.985L29.2444 75.3676C29.1017 75.7078 28.8944 76.0171 28.6341 76.2785C28.3727 76.5366 28.0769 76.7573 27.755 76.9343C27.4332 77.1113 27.0904 77.2475 26.7348 77.3397C26.3897 77.429 26.0347 77.4749 25.6782 77.4763C25.0856 77.4845 24.5002 77.3452 23.9748 77.071C23.4675 76.8078 23.0159 76.449 22.6449 76.0143C22.2715 75.5733 21.9772 75.071 21.775 74.5296C21.563 73.9712 21.458 73.3779 21.4653 72.7806Z" fill="white"/>
<path d="M37.8615 68.3403V77.3491H36.9871V73.1499H31.6446V77.3628H30.7565V68.3403H31.6446V72.3483H36.9871V68.3403H37.8615Z" fill="white"/>
<path d="M40.995 69.9891V77.3491H40.1069V68.3403H40.7901L46.7565 75.837V68.3494H47.6446V77.3491H46.8658L40.995 69.9891Z" fill="white"/>
<path d="M53.529 77.413C52.9344 77.4183 52.3467 77.2858 51.8119 77.0258C51.3007 76.7766 50.8452 76.4265 50.4729 75.9965C50.0975 75.5645 49.8042 75.0675 49.6076 74.53C49.4076 73.9905 49.3043 73.4201 49.3024 72.8448C49.3013 72.2543 49.411 71.6688 49.6258 71.1187C49.8386 70.5803 50.1472 70.085 50.5367 69.6567C50.9153 69.2375 51.3716 68.8957 51.8803 68.6501C52.4031 68.3992 52.9764 68.2714 53.5563 68.2767C54.1527 68.2691 54.7419 68.4067 55.2733 68.6775C55.7829 68.9332 56.2366 69.2877 56.6078 69.7204C56.9769 70.1553 57.2668 70.6517 57.4641 71.187C57.6635 71.7202 57.7669 72.2846 57.7692 72.8539C57.7707 73.4445 57.661 74.0301 57.4458 74.5801C57.2414 75.1147 56.9403 75.6072 56.5577 76.033C56.1818 76.4519 55.7267 76.7924 55.2187 77.0349C54.6922 77.2898 54.1139 77.4192 53.529 77.413ZM50.1951 72.8585C50.1925 73.3392 50.2727 73.8168 50.4319 74.2704C50.588 74.7102 50.8208 75.1189 51.1197 75.4773C51.4113 75.8237 51.7689 76.1086 52.1717 76.3153C52.596 76.5259 53.0645 76.6321 53.5381 76.625C54.0135 76.6288 54.4825 76.5162 54.9044 76.2971C55.3097 76.0822 55.6675 75.7879 55.9565 75.4318C56.2463 75.0726 56.4714 74.6658 56.6215 74.2294C56.7775 73.7907 56.8575 73.3286 56.8583 72.863C56.8597 72.3801 56.7764 71.9008 56.6124 71.4466C56.4539 71.0097 56.2195 70.6042 55.9201 70.2488C55.6266 69.9036 55.2674 69.6203 54.8634 69.4153C54.4466 69.2068 53.986 69.1006 53.5199 69.1056C53.0452 69.1036 52.5769 69.2145 52.1535 69.4289C51.7468 69.6376 51.3883 69.9293 51.1014 70.2852C50.8106 70.6453 50.5855 71.0539 50.4365 71.4921C50.2817 71.9266 50.2002 72.3837 50.1951 72.8448V72.8585Z" fill="white"/>
<path d="M59.4316 77.3491V68.3403H60.3197V76.5612H65.5209V77.3491H59.4316Z" fill="white"/>
<path d="M69.8841 77.413C69.2896 77.4183 68.7018 77.2858 68.1671 77.0258C67.6573 76.7742 67.2023 76.4244 66.8281 75.9965C66.4524 75.5655 66.1605 75.0681 65.9673 74.53C65.7652 73.9911 65.6618 73.4203 65.6621 72.8448C65.661 72.2543 65.7707 71.6688 65.9855 71.1186C66.198 70.5802 66.5067 70.0848 66.8964 69.6567C67.2821 69.2356 67.7462 68.8937 68.2627 68.6501C68.7838 68.3988 69.3558 68.271 69.9342 68.2766C70.532 68.2693 71.1227 68.4068 71.6558 68.6774C72.164 68.9333 72.6161 69.2878 72.9857 69.7204C73.3565 70.1542 73.6465 70.6509 73.842 71.187C74.0437 71.7196 74.1471 72.2844 74.1471 72.8539C74.1486 73.4445 74.0389 74.0301 73.8238 74.5801C73.6193 75.1147 73.3183 75.6072 72.9356 76.0329C72.5607 76.453 72.1054 76.7937 71.5966 77.0349C71.0633 77.2933 70.4767 77.4228 69.8841 77.413ZM66.5502 72.8585C66.5472 73.3396 66.6289 73.8175 66.7916 74.2704C66.9442 74.7108 67.1757 75.1198 67.4748 75.4773C67.7664 75.8237 68.1241 76.1086 68.5269 76.3153C68.9514 76.5254 69.4197 76.6316 69.8932 76.625C70.3686 76.6288 70.8377 76.5162 71.2596 76.2971C71.6648 76.0822 72.0226 75.7879 72.3117 75.4318C72.601 75.0716 72.8274 74.665 72.9812 74.2294C73.134 73.79 73.2125 73.3282 73.2135 72.863C73.2148 72.3801 73.1316 71.9007 72.9675 71.4466C72.8108 71.0088 72.5763 70.603 72.2752 70.2487C71.9835 69.9037 71.6258 69.6204 71.2232 69.4153C70.7992 69.2039 70.3305 69.0976 69.8568 69.1056C69.382 69.1024 68.9134 69.2133 68.4905 69.4289C68.0837 69.6376 67.7253 69.9293 67.4384 70.2852C67.1462 70.6451 66.9195 71.0537 66.7689 71.4921C66.6234 71.9281 66.5511 72.3852 66.5548 72.8448L66.5502 72.8585Z" fill="white"/>
<path d="M82.2951 76.0282C81.9402 76.4511 81.4979 76.7922 80.9987 77.0281C80.4995 77.2639 79.9551 77.3889 79.403 77.3945C78.8189 77.4008 78.2421 77.2648 77.7224 76.9983C77.2141 76.7424 76.7608 76.3897 76.3879 75.9598C76.0117 75.5259 75.7142 75.0296 75.5089 74.4933C75.2974 73.9582 75.1892 73.388 75.1901 72.8127C75.1889 72.2234 75.2938 71.6387 75.4998 71.0865C75.6978 70.5528 75.9927 70.0602 76.3697 69.6336C76.7402 69.2165 77.189 68.8761 77.6905 68.6317C78.2079 68.3793 78.7772 68.2514 79.3529 68.2582C79.7584 68.253 80.1627 68.302 80.5553 68.4039C80.8979 68.4916 81.2262 68.6281 81.5299 68.8093C81.8048 68.9768 82.0521 69.1857 82.2632 69.4287C82.4712 69.6701 82.6487 69.9363 82.7915 70.2212L82.1038 70.6766C81.8507 70.1611 81.4495 69.7329 80.9515 69.4469C80.4574 69.1775 79.9019 69.041 79.3392 69.0507C78.8643 69.0415 78.3947 69.1511 77.9729 69.3695C77.5765 69.5762 77.2275 69.8631 76.9481 70.2121C76.6575 70.5709 76.4352 70.98 76.2923 71.419C76.1411 71.8712 76.0642 72.345 76.0645 72.8218C76.0621 73.3149 76.1501 73.8042 76.3241 74.2656C76.4884 74.706 76.7306 75.1133 77.0392 75.4679C77.3409 75.8071 77.7061 76.0841 78.1141 76.2832C78.5302 76.4888 78.989 76.5933 79.4531 76.5884C79.9668 76.5891 80.473 76.4656 80.9287 76.2285C81.4575 75.9429 81.9224 75.5524 82.2951 75.0808V73.6052H80.2911V72.9174H83.0238V77.349H82.2769L82.2951 76.0282Z" fill="white"/>
<path d="M84.5405 68.3403L87.5055 73.1863L90.4704 68.3403H91.436L87.9473 73.997V77.3491H87.0364V73.9742L83.5613 68.3403H84.5405Z" fill="white"/>
<path d="M37.3514 15.3169L38.235 17.043H59.0217L59.9053 15.3169H37.3514Z" fill="#F9B700"/>
<path d="M60.4791 14.0825L64.3003 5.67945C63.4799 6.0991 62.6153 6.42601 61.7224 6.65412C61.9064 7.02168 62.0015 7.42727 62.0003 7.83828C62.0003 8.18518 61.9319 8.52869 61.7992 8.84918C61.6664 9.16968 61.4718 9.46089 61.2266 9.70618C60.9813 9.95148 60.69 10.1461 60.3696 10.2788C60.0491 10.4116 59.7056 10.4799 59.3587 10.4799C58.6937 10.4745 58.0553 10.2181 57.5714 9.76205C57.0875 9.30598 56.7937 8.68393 56.7489 8.02046C57.0534 7.9131 57.3322 7.74344 57.5675 7.52229C57.8027 7.30115 57.9893 7.03339 58.1153 6.7361C58.2379 6.44821 58.3 6.13812 58.2975 5.8252C58.298 5.52158 58.2388 5.22082 58.123 4.94013C58.0072 4.65945 57.8372 4.40436 57.6227 4.18945C57.4083 3.97455 57.1535 3.80405 56.873 3.68772C56.5926 3.57139 56.292 3.51151 55.9883 3.51152C55.4573 3.50774 54.9412 3.68674 54.5265 4.01846C54.1119 4.35018 53.824 4.81444 53.7111 5.33331C53.6795 5.48312 53.6627 5.63567 53.661 5.78876C53.6621 6.27764 53.8178 6.75365 54.1057 7.14874C54.3936 7.54384 54.7991 7.83779 55.2642 7.98858C55.2126 8.65029 54.9134 9.26821 54.4263 9.71903C53.9391 10.1698 53.2999 10.4204 52.6362 10.4207C51.9364 10.4195 51.2657 10.1406 50.7713 9.64537C50.2769 9.1501 49.9992 8.47889 49.9992 7.77908C49.9996 7.22665 50.1732 6.68826 50.4956 6.23966C51.2341 5.76175 51.7633 5.02093 51.9758 4.16736C50.552 3.04598 49.3946 1.62266 48.5873 0C47.7854 1.61714 46.6342 3.0359 45.2169 4.1537C45.4279 5.01284 45.959 5.75899 46.7017 6.23966C47.0241 6.68826 47.1977 7.22665 47.1982 7.77908C47.1982 8.47889 46.9205 9.1501 46.4261 9.64537C45.9316 10.1406 45.2609 10.4195 44.5611 10.4207C43.915 10.4156 43.2932 10.1735 42.8138 9.74024C42.3344 9.30702 42.0308 8.71287 41.9605 8.07056C42.447 7.93617 42.8761 7.64608 43.182 7.24468C43.488 6.84329 43.6541 6.35269 43.6548 5.84797C43.6549 5.66843 43.6335 5.48953 43.591 5.3151C43.4718 4.808 43.1847 4.3561 42.7762 4.0328C42.3678 3.70951 41.862 3.53383 41.3411 3.53429C41.0374 3.53429 40.7368 3.59416 40.4564 3.71049C40.1759 3.82682 39.9211 3.99732 39.7067 4.21222C39.4922 4.42713 39.3222 4.68222 39.2064 4.96291C39.0906 5.24359 39.0313 5.54435 39.0319 5.84797C39.0288 6.16051 39.0892 6.47042 39.2096 6.75887C39.3303 7.04617 39.508 7.30606 39.7318 7.52288C39.9557 7.7397 40.2211 7.90896 40.5122 8.02046C40.4669 8.69099 40.1674 9.31893 39.6747 9.77604C39.1821 10.2331 38.5335 10.4849 37.8614 10.4799C37.1616 10.4787 36.4909 10.1998 35.9965 9.70457C35.5021 9.20931 35.2244 8.53809 35.2244 7.83828C35.2236 7.4199 35.3236 7.00747 35.5159 6.6359C34.634 6.47434 33.7726 6.21622 32.9471 5.86619L36.7638 14.0643L60.4791 14.0825Z" fill="#F9B700"/>
<path d="M45.1624 34.5366H42.9717V24.4165H38.103V43.6684H42.9717V38.7723H45.1624V34.5366Z" fill="#F9B700"/>
<path d="M54.3261 34.5366H52.0989V38.7723H54.3261V43.6684H59.1584V24.4165H54.3261V34.5366Z" fill="#F9B700"/>
<path d="M59.0535 22.8955H51.0695V43.664H46.2417V22.8955H38.235V18.6279H59.0763L59.0535 22.8955Z" fill="#F9B700"/>
<path d="M70.4261 81.1792H26.835V81.5754H70.4261V81.1792Z" fill="#F9B700"/>
<path d="M6.226 87.0225C6.226 87.7148 6.71333 87.9334 7.32363 87.9334C7.67889 87.9334 8.23453 87.7421 8.23453 87.2502C8.23453 86.8722 7.85195 86.7173 7.54225 86.6445L6.79076 86.4577C6.39452 86.3621 6.03471 86.1708 6.03471 85.647C6.03471 85.3191 6.24422 84.6997 7.19156 84.6997C7.85651 84.6997 8.43949 85.0595 8.43493 85.7472H8.11612C8.10933 85.6358 8.08009 85.5269 8.03017 85.427C7.98024 85.3271 7.91065 85.2384 7.82558 85.1661C7.74051 85.0938 7.64171 85.0394 7.53511 85.0062C7.42851 84.973 7.3163 84.9617 7.20522 84.973C6.74977 84.973 6.36264 85.146 6.36264 85.6425C6.36264 85.9613 6.59947 86.0979 6.87274 86.1571L7.69255 86.3621C8.148 86.4896 8.56246 86.6946 8.56246 87.2457C8.56246 87.4779 8.47137 88.2067 7.27809 88.2067C6.48106 88.2067 5.91174 87.8514 5.93451 87.0316L6.226 87.0225Z" fill="white"/>
<path d="M9.43688 84.7637H9.89233L11.0537 87.715L12.2151 84.7637H12.6706V88.1294H12.3518V85.2191L11.1995 88.1294H10.8989L9.74203 85.2191V88.1294H9.42322L9.43688 84.7637Z" fill="white"/>
<path d="M14.7611 84.7637H15.1163L16.4371 88.1294H16.0955L15.6856 87.0819H14.1508L13.7454 88.1294H13.4038L14.7611 84.7637ZM14.251 86.8086H15.5763L14.925 85.0825L14.251 86.8086Z" fill="white"/>
<path d="M17.1432 84.7637H18.6871C19.2428 84.7637 19.7074 85.0324 19.7074 85.6381C19.7244 85.8368 19.6673 86.0347 19.547 86.1936C19.4268 86.3526 19.2518 86.4614 19.0561 86.4989C19.5115 86.5536 19.6208 86.8587 19.6436 87.2595C19.6275 87.5546 19.6806 87.8494 19.7984 88.1203H19.4432C19.3804 87.9531 19.351 87.7751 19.3567 87.5966C19.3293 87.1411 19.2883 86.6037 18.6826 86.6265H17.4665V88.1203H17.1432V84.7637ZM17.4665 86.3623H18.6644C18.7556 86.3698 18.8475 86.3585 18.9342 86.3291C19.0209 86.2996 19.1007 86.2527 19.1686 86.1913C19.2364 86.1298 19.291 86.0551 19.3288 85.9717C19.3666 85.8883 19.387 85.798 19.3885 85.7065C19.395 85.6121 19.3802 85.5174 19.3453 85.4295C19.3104 85.3416 19.2562 85.2626 19.1867 85.1984C19.1172 85.1341 19.0343 85.0863 18.9439 85.0584C18.8535 85.0304 18.758 85.0231 18.6644 85.0369H17.4665V86.3623Z" fill="white"/>
<path d="M20.354 84.7637H23.0229V85.0369H21.8479V88.1294H21.5291V85.0369H20.354V84.7637Z" fill="white"/>
<path d="M29.3082 84.7637H30.7292C31.2985 84.7637 31.8086 84.9595 31.8086 85.588C31.8115 85.7615 31.7554 85.9308 31.6495 86.0681C31.5436 86.2055 31.3941 86.3028 31.2257 86.3441C31.4266 86.3637 31.6123 86.4597 31.7445 86.6122C31.8767 86.7648 31.9453 86.9622 31.9362 87.1639C31.9362 87.4827 31.8268 88.1203 30.7292 88.1203H29.3082V84.7637ZM29.627 86.2393H30.7292C31.2439 86.2393 31.4898 85.9843 31.4898 85.67C31.4898 85.251 31.2302 85.0369 30.7292 85.0369H29.627V86.2393ZM29.627 87.8562H30.7292C31.1847 87.8562 31.6173 87.7013 31.6173 87.1639C31.6173 86.7358 31.294 86.5126 30.7292 86.5126H29.627V87.8562Z" fill="white"/>
<path d="M32.8515 84.7637H35.1789V85.0369H33.1749V86.253H35.0513V86.5263H33.1749V87.8562H35.2016V88.1294H32.8515V84.7637Z" fill="white"/>
<path d="M37.0326 84.7637H37.3924L38.7132 88.1294H38.3671L37.9572 87.0819H36.4269L36.0215 88.1294H35.6754L37.0326 84.7637ZM36.5271 86.8086H37.8479L37.2011 85.0825L36.5271 86.8086Z" fill="white"/>
<path d="M39.3873 84.7637H39.7061V86.8451C39.7061 87.6285 40.075 87.9245 40.6944 87.9245C41.3138 87.9245 41.6873 87.6285 41.6827 86.8451V84.7637H42.0015V86.9179C42.0175 87.0924 41.9945 87.2682 41.934 87.4326C41.8736 87.597 41.7773 87.7459 41.6521 87.8685C41.5269 87.991 41.376 88.0842 41.2104 88.1411C41.0447 88.1981 40.8685 88.2174 40.6944 88.1978C40.5205 88.2166 40.3446 88.1966 40.1793 88.1394C40.0141 88.0821 39.8635 87.989 39.7385 87.8666C39.6136 87.7442 39.5172 87.5957 39.4565 87.4317C39.3958 87.2676 39.3721 87.0922 39.3873 86.9179V84.7637Z" fill="white"/>
<path d="M42.6847 84.7637H45.3536V85.0369H44.1831V88.1294H43.8598V85.0369H42.6847V84.7637Z" fill="white"/>
<path d="M46.096 84.7637H46.4148V88.1294H46.096V84.7637Z" fill="white"/>
<path d="M47.5171 84.7637H49.6531V85.0369H47.8313V86.253H49.4436V86.5263H47.8313V88.1294H47.5079L47.5171 84.7637Z" fill="white"/>
<path d="M50.4182 84.7637H50.737V86.8451C50.737 87.6285 51.106 87.9245 51.7254 87.9245C52.3448 87.9245 52.7183 87.6285 52.7137 86.8451V84.7637H53.0325V86.9179C53.0485 87.0924 53.0254 87.2682 52.965 87.4326C52.9045 87.597 52.8082 87.7459 52.6831 87.8685C52.5579 87.991 52.407 88.0842 52.2414 88.1411C52.0757 88.1981 51.8994 88.2174 51.7254 88.1978C51.5515 88.2166 51.3756 88.1966 51.2103 88.1394C51.045 88.0821 50.8945 87.989 50.7695 87.8666C50.6445 87.7442 50.5482 87.5957 50.4875 87.4317C50.4267 87.2676 50.4031 87.0922 50.4182 86.9179V84.7637Z" fill="white"/>
<path d="M54.0801 84.7637H54.4034V87.8562H56.289V88.1294H54.0801V84.7637Z" fill="white"/>
<path d="M62.606 84.7637H62.9249V88.1294H62.606V84.7637Z" fill="white"/>
<path d="M64.0226 84.7637H64.3824L66.3408 87.6102V84.7637H66.6596V88.1294H66.2998L64.3414 85.2829V88.1294H64.018L64.0226 84.7637Z" fill="white"/>
<path d="M67.7435 84.7637H68.1033L70.0618 87.6102V84.7637H70.3851V88.1294H70.0253L68.0623 85.2829V88.1294H67.7435V84.7637Z" fill="white"/>
<path d="M72.8765 84.6909C73.9331 84.6909 74.4614 85.5289 74.4614 86.4444C74.4614 87.3599 73.9331 88.1979 72.8765 88.1979C71.8198 88.1979 71.287 87.3644 71.287 86.4444C71.287 85.5244 71.8153 84.6909 72.8765 84.6909ZM72.8765 87.9246C73.7874 87.9246 74.1381 87.1822 74.1381 86.4444C74.1381 85.7066 73.7646 84.9642 72.8765 84.9642C71.9883 84.9642 71.6103 85.7111 71.6103 86.4444C71.6103 87.1777 71.9838 87.9246 72.8765 87.9246Z" fill="white"/>
<path d="M74.9897 84.7637H75.3313L76.4289 87.7742L77.5129 84.7637H77.8499L76.602 88.1294H76.2285L74.9897 84.7637Z" fill="white"/>
<path d="M79.3074 84.7637H79.6626L80.9834 88.1294H80.6418L80.2319 87.0819H78.6971L78.2917 88.1294H77.941L79.3074 84.7637ZM78.7745 86.8132H80.0998L79.4485 85.087L78.7745 86.8132Z" fill="white"/>
<path d="M80.9835 84.7637H83.6524V85.0369H82.4956V88.1294H82.1722V85.0369H80.9972L80.9835 84.7637Z" fill="white"/>
<path d="M84.3948 84.7637H84.7136V88.1294H84.3948V84.7637Z" fill="white"/>
<path d="M85.4468 84.7637H85.7884L86.8815 87.7742L87.9609 84.7637H88.3025L87.05 88.1294H86.6765L85.4468 84.7637Z" fill="white"/>
<path d="M89.013 84.7637H91.3358V85.0369H89.3273V86.253H91.1992V86.5263H89.3273V87.8562H91.3541V88.1294H89.0039L89.013 84.7637Z" fill="white"/>
<path d="M25.9834 87.296C26.2375 87.296 26.4434 87.09 26.4434 86.836C26.4434 86.5819 26.2375 86.376 25.9834 86.376C25.7294 86.376 25.5234 86.5819 25.5234 86.836C25.5234 87.09 25.7294 87.296 25.9834 87.296Z" fill="white"/>
<path d="M59.2539 87.296C59.5079 87.296 59.7139 87.09 59.7139 86.836C59.7139 86.5819 59.5079 86.376 59.2539 86.376C58.9998 86.376 58.7939 86.5819 58.7939 86.836C58.7939 87.09 58.9998 87.296 59.2539 87.296Z" fill="white"/>
</svg>
