<svg width="143" height="44" viewBox="0 0 143 44" fill="none" xmlns="http://www.w3.org/2000/svg">
<path d="M57.0284 9.45459V23.0406H53.2937V17.7301H48.7392V23.0406H45V9.45459H48.7392V14.4645H53.2937V9.45459H57.0284Z" fill="#484444"/>
<path d="M62.8901 9.45459H66.2969L71.0199 23.0406H67.226L66.4016 20.3808H62.7854L61.9792 23.0406H58.1671L62.8901 9.45459ZM65.8004 17.9032L64.5935 13.6903L63.3274 17.9032H65.8004Z" fill="#484444"/>
<path d="M72.1402 23.0407V9.45467H78.3844C79.0154 9.45074 79.6389 9.59258 80.2062 9.86913C80.7523 10.1311 81.2437 10.4943 81.6545 10.9394C82.0571 11.3853 82.3778 11.8987 82.6018 12.4561C82.8266 12.9992 82.9442 13.5808 82.948 14.1686C82.9536 14.9372 82.7756 15.6961 82.4288 16.3821C82.0938 17.0504 81.5996 17.626 80.9895 18.0581L83.8634 23.0681H79.6733L77.2822 18.8961H75.8794V23.0407H72.1402ZM75.8749 15.6123H78.2341C78.3632 15.6021 78.4882 15.5618 78.5989 15.4946C78.7096 15.4273 78.8031 15.3351 78.8717 15.2252C79.0898 14.9126 79.1957 14.5354 79.1723 14.1549C79.2001 13.7626 79.0762 13.3746 78.8262 13.0709C78.7436 12.9645 78.6398 12.8764 78.5214 12.8121C78.4031 12.7479 78.2727 12.7088 78.1384 12.6975H75.8612L75.8749 15.6123Z" fill="#484444"/>
<path d="M95.359 23.0406V15.8901L93.0818 20.9274H91.0915L88.8142 15.8901V23.0406H85.0795V9.45459H89.1786L92.1117 15.8537L95.0584 9.45459H99.121V23.0406H95.359Z" fill="#484444"/>
<path d="M107.561 23.1726C106.59 23.1854 105.628 22.9816 104.746 22.576C103.93 22.1998 103.195 21.6711 102.578 21.0183C101.98 20.3723 101.506 19.622 101.18 18.8048C100.85 17.9886 100.682 17.1163 100.683 16.2361C100.683 15.3483 100.858 14.4693 101.198 13.6492C101.536 12.833 102.028 12.0893 102.646 11.4584C103.276 10.8167 104.025 10.3032 104.851 9.94635C105.729 9.5611 106.679 9.36704 107.638 9.37703C108.609 9.36421 109.57 9.56803 110.453 9.97367C111.269 10.3516 112.004 10.8853 112.616 11.545C113.208 12.193 113.671 12.9471 113.982 13.7676C114.306 14.5773 114.471 15.4415 114.47 16.3135C114.471 17.1984 114.296 18.0747 113.955 18.8914C113.616 19.7022 113.128 20.4422 112.516 21.073C111.89 21.7154 111.146 22.2318 110.325 22.5942C109.456 22.9826 108.513 23.1798 107.561 23.1726ZM104.477 16.2771C104.476 16.7273 104.54 17.1754 104.668 17.607C104.788 18.0187 104.983 18.4047 105.242 18.7456C105.502 19.0812 105.831 19.3563 106.208 19.5518C106.639 19.7654 107.116 19.8701 107.597 19.8569C108.082 19.8688 108.562 19.7609 108.995 19.5427C109.376 19.343 109.707 19.0614 109.965 18.7183C110.219 18.3676 110.407 17.9742 110.521 17.5569C110.64 17.1267 110.702 16.6825 110.703 16.2361C110.705 15.7855 110.639 15.3371 110.507 14.9062C110.392 14.4938 110.194 14.1094 109.924 13.7767C109.66 13.4473 109.327 13.1786 108.95 12.9887C108.524 12.7847 108.056 12.6833 107.583 12.6927C107.103 12.6818 106.626 12.7865 106.194 12.9979C105.816 13.1952 105.487 13.4736 105.229 13.8131C104.97 14.1568 104.778 14.5462 104.664 14.9608C104.54 15.3887 104.478 15.8318 104.477 16.2771Z" fill="#484444"/>
<path d="M119.821 16.3729V23.0406H116.082V9.45459H118.997L124.462 16.3729V9.45459H128.192V23.0406H125.218L119.821 16.3729Z" fill="#484444"/>
<path d="M133.284 9.45473L135.716 15.3346L138.208 9.45473H142.27L137.575 18.5637V23.0408H133.872V18.4863L129.258 9.42285L133.284 9.45473Z" fill="#484444"/>
<path d="M58.1533 28.1237H54.9424V36.3491H54.0588V28.1237H50.8707V27.3403H58.1579L58.1533 28.1237Z" fill="#484444"/>
<path d="M65.5544 35.5612V36.3491H59.5014V27.3403H65.4223V28.1237H60.3713V31.3756H64.771V32.1226H60.3713V35.5612H65.5544Z" fill="#484444"/>
<path d="M66.4653 31.7806C66.4677 31.2281 66.5632 30.68 66.7477 30.1592C66.9348 29.6324 67.2173 29.1445 67.5811 28.72C67.957 28.2908 68.4135 27.9395 68.9247 27.6861C69.4928 27.4138 70.1167 27.2781 70.7465 27.2899C71.4707 27.2673 72.1859 27.4556 72.8051 27.8319C73.3562 28.1713 73.795 28.6655 74.0667 29.2529L73.3699 29.7083C73.2392 29.4301 73.0604 29.1773 72.8416 28.9614C72.6429 28.7652 72.4175 28.5981 72.1721 28.465C71.9416 28.3401 71.6948 28.2481 71.4388 28.1917C71.1919 28.1379 70.94 28.1104 70.6873 28.1097C70.1895 28.1 69.6968 28.2126 69.2526 28.4376C68.8501 28.6527 68.4953 28.9471 68.2097 29.303C67.9236 29.6593 67.7059 30.0654 67.5675 30.5008C67.4233 30.9419 67.351 31.4032 67.3534 31.8672C67.3522 32.3572 67.4402 32.8433 67.613 33.3018C67.7777 33.7439 68.0182 34.1538 68.3235 34.5133C68.6191 34.8601 68.9815 35.1436 69.3893 35.3468C69.804 35.5574 70.2632 35.6652 70.7283 35.6611C70.9907 35.6596 71.2521 35.6275 71.5071 35.5654C71.7781 35.5 72.0387 35.3973 72.2814 35.2603C72.5331 35.117 72.7657 34.9426 72.9737 34.7411C73.1918 34.5202 73.3718 34.2647 73.5065 33.985L74.2444 34.3676C74.1017 34.7078 73.8944 35.0171 73.6341 35.2785C73.3727 35.5366 73.0769 35.7573 72.755 35.9343C72.4332 36.1113 72.0904 36.2475 71.7348 36.3397C71.3897 36.429 71.0347 36.4749 70.6782 36.4763C70.0856 36.4845 69.5002 36.3452 68.9748 36.071C68.4675 35.8078 68.0159 35.449 67.6449 35.0143C67.2715 34.5733 66.9772 34.071 66.775 33.5296C66.563 32.9712 66.458 32.3779 66.4653 31.7806Z" fill="#484444"/>
<path d="M82.8615 27.3403V36.3491H81.9871V32.1499H76.6446V36.3628H75.7565V27.3403H76.6446V31.3483H81.9871V27.3403H82.8615Z" fill="#484444"/>
<path d="M85.995 28.9891V36.3491H85.1069V27.3403H85.7901L91.7565 34.837V27.3494H92.6446V36.3491H91.8658L85.995 28.9891Z" fill="#484444"/>
<path d="M98.529 36.413C97.9344 36.4183 97.3467 36.2858 96.8119 36.0258C96.3007 35.7766 95.8452 35.4265 95.4729 34.9965C95.0975 34.5645 94.8042 34.0675 94.6076 33.53C94.4076 32.9905 94.3043 32.4201 94.3024 31.8448C94.3013 31.2543 94.411 30.6688 94.6258 30.1187C94.8386 29.5803 95.1472 29.085 95.5367 28.6567C95.9153 28.2375 96.3716 27.8957 96.8803 27.6501C97.4031 27.3992 97.9764 27.2714 98.5563 27.2767C99.1527 27.2691 99.7419 27.4067 100.273 27.6775C100.783 27.9332 101.237 28.2877 101.608 28.7204C101.977 29.1553 102.267 29.6517 102.464 30.187C102.664 30.7202 102.767 31.2846 102.769 31.8539C102.771 32.4445 102.661 33.0301 102.446 33.5801C102.241 34.1147 101.94 34.6072 101.558 35.033C101.182 35.4519 100.727 35.7924 100.219 36.0349C99.6922 36.2898 99.1139 36.4192 98.529 36.413ZM95.1951 31.8585C95.1925 32.3392 95.2727 32.8168 95.4319 33.2704C95.588 33.7102 95.8208 34.1189 96.1197 34.4773C96.4113 34.8237 96.7689 35.1086 97.1717 35.3153C97.596 35.5259 98.0645 35.6321 98.5381 35.625C99.0135 35.6288 99.4825 35.5162 99.9044 35.2971C100.31 35.0822 100.667 34.7879 100.957 34.4318C101.246 34.0726 101.471 33.6658 101.621 33.2294C101.777 32.7907 101.858 32.3286 101.858 31.863C101.86 31.3801 101.776 30.9008 101.612 30.4466C101.454 30.0097 101.22 29.6042 100.92 29.2488C100.627 28.9036 100.267 28.6203 99.8634 28.4153C99.4466 28.2068 98.986 28.1006 98.5199 28.1056C98.0452 28.1036 97.5769 28.2145 97.1535 28.4289C96.7468 28.6376 96.3883 28.9293 96.1014 29.2852C95.8106 29.6453 95.5855 30.0539 95.4365 30.4921C95.2817 30.9266 95.2002 31.3837 95.1951 31.8448V31.8585Z" fill="#484444"/>
<path d="M104.432 36.3491V27.3403H105.32V35.5612H110.521V36.3491H104.432Z" fill="#484444"/>
<path d="M114.884 36.413C114.29 36.4183 113.702 36.2858 113.167 36.0258C112.657 35.7742 112.202 35.4244 111.828 34.9965C111.452 34.5655 111.16 34.0681 110.967 33.53C110.765 32.9911 110.662 32.4203 110.662 31.8448C110.661 31.2543 110.771 30.6688 110.985 30.1186C111.198 29.5802 111.507 29.0848 111.896 28.6567C112.282 28.2356 112.746 27.8937 113.263 27.6501C113.784 27.3988 114.356 27.271 114.934 27.2766C115.532 27.2693 116.123 27.4068 116.656 27.6774C117.164 27.9333 117.616 28.2878 117.986 28.7204C118.357 29.1542 118.647 29.6509 118.842 30.187C119.044 30.7196 119.147 31.2844 119.147 31.8539C119.149 32.4445 119.039 33.0301 118.824 33.5801C118.619 34.1147 118.318 34.6072 117.936 35.0329C117.561 35.453 117.105 35.7937 116.597 36.0349C116.063 36.2933 115.477 36.4228 114.884 36.413ZM111.55 31.8585C111.547 32.3396 111.629 32.8175 111.792 33.2704C111.944 33.7108 112.176 34.1198 112.475 34.4773C112.766 34.8237 113.124 35.1086 113.527 35.3153C113.951 35.5254 114.42 35.6316 114.893 35.625C115.369 35.6288 115.838 35.5162 116.26 35.2971C116.665 35.0822 117.023 34.7879 117.312 34.4318C117.601 34.0716 117.827 33.665 117.981 33.2294C118.134 32.79 118.213 32.3282 118.213 31.863C118.215 31.3801 118.132 30.9007 117.968 30.4466C117.811 30.0088 117.576 29.603 117.275 29.2487C116.983 28.9037 116.626 28.6204 116.223 28.4153C115.799 28.2039 115.331 28.0976 114.857 28.1056C114.382 28.1024 113.913 28.2133 113.49 28.4289C113.084 28.6376 112.725 28.9293 112.438 29.2852C112.146 29.6451 111.92 30.0537 111.769 30.4921C111.623 30.9281 111.551 31.3852 111.555 31.8448L111.55 31.8585Z" fill="#484444"/>
<path d="M127.295 35.0282C126.94 35.4511 126.498 35.7922 125.999 36.0281C125.499 36.2639 124.955 36.3889 124.403 36.3945C123.819 36.4008 123.242 36.2648 122.722 35.9983C122.214 35.7424 121.761 35.3897 121.388 34.9598C121.012 34.5259 120.714 34.0296 120.509 33.4933C120.297 32.9582 120.189 32.388 120.19 31.8127C120.189 31.2234 120.294 30.6387 120.5 30.0865C120.698 29.5528 120.993 29.0602 121.37 28.6336C121.74 28.2165 122.189 27.8761 122.69 27.6317C123.208 27.3793 123.777 27.2514 124.353 27.2582C124.758 27.253 125.163 27.302 125.555 27.4039C125.898 27.4916 126.226 27.6281 126.53 27.8093C126.805 27.9768 127.052 28.1857 127.263 28.4287C127.471 28.6701 127.649 28.9363 127.792 29.2212L127.104 29.6766C126.851 29.1611 126.45 28.7329 125.952 28.4469C125.457 28.1775 124.902 28.041 124.339 28.0507C123.864 28.0415 123.395 28.1511 122.973 28.3695C122.577 28.5762 122.228 28.8631 121.948 29.2121C121.658 29.5709 121.435 29.98 121.292 30.419C121.141 30.8712 121.064 31.345 121.065 31.8218C121.062 32.3149 121.15 32.8042 121.324 33.2656C121.488 33.706 121.731 34.1133 122.039 34.4679C122.341 34.8071 122.706 35.0841 123.114 35.2832C123.53 35.4888 123.989 35.5933 124.453 35.5884C124.967 35.5891 125.473 35.4656 125.929 35.2285C126.458 34.9429 126.922 34.5524 127.295 34.0808V32.6052H125.291V31.9174H128.024V36.349H127.277L127.295 35.0282Z" fill="#484444"/>
<path d="M129.54 27.3403L132.505 32.1863L135.47 27.3403H136.436L132.947 32.997V36.3491H132.036V32.9742L128.561 27.3403H129.54Z" fill="#484444"/>
<path d="M4 16L4.94023 17H27.0598L28 16H4Z" fill="#F9B700"/>
<path d="M28.0999 15L32 6.04948C31.1627 6.49647 30.2802 6.84468 29.369 7.08765C29.5567 7.47916 29.6538 7.91117 29.6525 8.34896C29.6525 8.71847 29.5828 9.08435 29.4473 9.42573C29.3118 9.7671 29.1132 10.0773 28.8629 10.3386C28.6125 10.5998 28.3153 10.8071 27.9882 10.9485C27.6611 11.0899 27.3105 11.1627 26.9564 11.1627C26.2778 11.1569 25.6262 10.8838 25.1323 10.3981C24.6384 9.91229 24.3385 9.2497 24.2929 8.54301C24.6036 8.42866 24.8882 8.24794 25.1283 8.01238C25.3684 7.77683 25.5588 7.49163 25.6874 7.17497C25.8126 6.86832 25.8759 6.53803 25.8733 6.20472C25.8739 5.88132 25.8134 5.56096 25.6953 5.26199C25.5771 4.96303 25.4036 4.69131 25.1847 4.4624C24.9658 4.2335 24.7058 4.05189 24.4195 3.92798C24.1333 3.80408 23.8264 3.7403 23.5166 3.7403C22.9746 3.73628 22.4478 3.92693 22.0246 4.28027C21.6014 4.6336 21.3075 5.12811 21.1923 5.68079C21.1601 5.84035 21.1429 6.00284 21.1412 6.16591C21.1424 6.68664 21.3012 7.19366 21.5951 7.6145C21.889 8.03533 22.3028 8.34844 22.7775 8.50906C22.7248 9.21387 22.4194 9.87206 21.9223 10.3522C21.4251 10.8324 20.7727 11.0993 20.0953 11.0996C19.381 11.0983 18.6965 10.8013 18.1919 10.2738C17.6872 9.74625 17.4038 9.0313 17.4038 8.2859C17.4043 7.69748 17.5815 7.12402 17.9105 6.64618C18.6642 6.13714 19.2043 5.34806 19.4213 4.43887C17.968 3.24443 16.7868 1.72838 15.9628 0C15.1444 1.7225 13.9695 3.23369 12.5229 4.42432C12.7383 5.33944 13.2803 6.1342 14.0383 6.64618C14.3674 7.12402 14.5446 7.69748 14.545 8.2859C14.545 9.0313 14.2616 9.74625 13.757 10.2738C13.2524 10.8013 12.5678 11.0983 11.8536 11.0996C11.1941 11.0942 10.5595 10.8363 10.0702 10.3748C9.58096 9.91339 9.27104 9.28053 9.1993 8.59638C9.69584 8.45323 10.1338 8.14424 10.4461 7.71669C10.7584 7.28914 10.9278 6.76658 10.9285 6.22898C10.9287 6.03774 10.9068 5.84719 10.8635 5.66138C10.7418 5.12125 10.4487 4.6399 10.0319 4.29555C9.61497 3.9512 9.09877 3.76406 8.56711 3.76455C8.25722 3.76455 7.95038 3.82833 7.66414 3.95224C7.3779 4.07615 7.11788 4.25775 6.89897 4.48666C6.68007 4.71557 6.50657 4.98728 6.38841 5.28625C6.27024 5.58522 6.20973 5.90557 6.21034 6.22898C6.2071 6.56188 6.26878 6.89198 6.39163 7.19922C6.51487 7.50525 6.69619 7.78207 6.92467 8.01301C7.15315 8.24396 7.42407 8.42424 7.72109 8.54301C7.67491 9.25722 7.36918 9.92608 6.86637 10.413C6.36355 10.8998 5.70158 11.168 5.01569 11.1627C4.30144 11.1614 3.61687 10.8644 3.11225 10.3368C2.60764 9.80931 2.32423 9.09437 2.32423 8.34896C2.32342 7.90332 2.42546 7.46402 2.62173 7.06824C1.72165 6.89616 0.842445 6.62122 0 6.24838L3.89541 14.9806L28.0999 15Z" fill="#F9B700"/>
<path d="M12 34.5134H9.82774V24H5V44H9.82774V38.9137H12V34.5134Z" fill="#F9B700"/>
<path d="M22.2084 34.5134H20V38.9137H22.2084V44H27V24H22.2084V34.5134Z" fill="#F9B700"/>
<path d="M26.976 23.2614H18.5481V44H13.4519V23.2614H5V19H27L26.976 23.2614Z" fill="#F9B700"/>
<path d="M115.426 40.1792H71.8351V40.5754H115.426V40.1792Z" fill="#F9B700"/>
</svg>
